<?xml version="1.0" encoding="UTF-8" standalone="no"?>
<!-- Created with Inkscape (http://www.inkscape.org/) -->

<svg
   width="150mm"
   height="150mm"
   viewBox="0 0 150 150"
   version="1.1"
   id="svg420"
   inkscape:version="1.2.2 (b0a8486541, 2022-12-01)"
   sodipodi:docname="eulerr.svg"
   xmlns:inkscape="http://www.inkscape.org/namespaces/inkscape"
   xmlns:sodipodi="http://sodipodi.sourceforge.net/DTD/sodipodi-0.dtd"
   xmlns="http://www.w3.org/2000/svg"
   xmlns:svg="http://www.w3.org/2000/svg">
  <sodipodi:namedview
     id="namedview422"
     pagecolor="#ffffff"
     bordercolor="#666666"
     borderopacity="1.0"
     inkscape:showpageshadow="2"
     inkscape:pageopacity="0.0"
     inkscape:pagecheckerboard="0"
     inkscape:deskcolor="#d1d1d1"
     inkscape:document-units="mm"
     showgrid="false"
     inkscape:zoom="0.85851376"
     inkscape:cx="415.25252"
     inkscape:cy="270.81686"
     inkscape:window-width="1920"
     inkscape:window-height="1071"
     inkscape:window-x="1080"
     inkscape:window-y="330"
     inkscape:window-maximized="1"
     inkscape:current-layer="layer1" />
  <defs
     id="defs417" />
  <g
     inkscape:label="Layer 1"
     inkscape:groupmode="layer"
     id="layer1"
     transform="translate(-98.260612,-69.516797)">
    <path
       id="ellipse2164"
       style="fill:#d56a11;fill-opacity:1;fill-rule:evenodd;stroke:#ffffff;stroke-width:2.64583;stroke-linecap:round;stroke-linejoin:bevel;stroke-dasharray:none;stroke-opacity:1;paint-order:normal"
       d="m 187.99576,104.60498 a 22.918975,40.431071 28.168777 0 0 -4.0721,17.11369 54.59112,29.204947 55.781923 0 1 27.54767,10.76833 30.192436,57.715187 76.59446 0 0 -0.0212,-12.9713 30.192436,57.715187 76.59446 0 0 -23.45439,-14.91072 z" />
    <path
       id="ellipse2155"
       style="fill:#ffc107;fill-opacity:1;fill-rule:evenodd;stroke:#ffffff;stroke-width:2.64583;stroke-linecap:round;stroke-linejoin:bevel;stroke-dasharray:none;stroke-opacity:1;paint-order:normal"
       d="m 183.91281,121.72021 a 54.59112,29.204947 55.781923 0 0 -16.23777,17.52555 54.59112,29.204947 55.781923 0 0 2.9316,23.54017 30.192436,57.715188 76.59446 0 0 32.15566,-17.8201 22.918974,40.431071 28.168777 0 1 -14.23168,-4.49224 22.918974,40.431071 28.168777 0 1 -4.61781,-18.75338 z" />
    <path
       style="fill:#000000;fill-opacity:1;fill-rule:evenodd;stroke:#ffffff;stroke-width:2.64583;stroke-linecap:round;stroke-linejoin:bevel;stroke-dasharray:none;stroke-opacity:1;paint-order:normal"
       d="m 183.91126,121.72797 a 22.918975,40.431071 28.168777 0 0 4.61936,18.74563 22.918975,40.431071 28.168777 0 0 14.29059,4.4731 30.192436,57.715187 76.59446 0 0 8.65168,-12.45814 54.59112,29.204947 55.781923 0 0 -27.56163,-10.76059 z"
       id="path4440" />
    <path
       style="fill:#073984;fill-rule:evenodd;stroke:#ffffff;stroke-width:2.64583;stroke-linecap:round;stroke-linejoin:bevel;stroke-dasharray:none;stroke-opacity:1;paint-order:normal"
       d="m 170.60664,162.78593 a 54.59112,29.204947 55.781923 0 1 -2.9316,-23.54016 54.59112,29.204947 55.781923 0 1 16.23622,-17.5178 22.918975,40.431071 28.168777 0 1 4.0845,-17.12299 30.192436,57.715187 76.59446 0 0 -43.85469,2.83394 30.192436,57.715187 76.59446 0 0 -43.26092,44.01592 30.192436,57.715187 76.59446 0 0 67.30907,12.07678 30.192436,57.715187 76.59446 0 0 2.41742,-0.74569 z"
       id="path4438" />
    <path
       style="fill:#dc3545;fill-rule:evenodd;stroke:#ffffff;stroke-width:2.64583;stroke-linecap:round;stroke-linejoin:bevel;stroke-dasharray:none;stroke-opacity:1;paint-order:normal"
       d="m 217.15367,137.41642 a 22.918975,40.431071 28.168777 0 1 -14.33246,7.53028 30.192436,57.715187 76.59446 0 1 -32.21457,17.83923 54.59112,29.204947 55.781923 0 0 30.70666,44.05778 54.59112,29.204947 55.781923 0 0 43.81489,-6.74481 54.59112,29.204947 55.781923 0 0 -27.97452,-62.68248 z"
       id="path4436" />
    <path
       style="fill:#106e7d;fill-rule:evenodd;stroke:#ffffff;stroke-width:2.64583;stroke-linecap:round;stroke-linejoin:bevel;stroke-dasharray:none;stroke-opacity:1;paint-order:normal"
       d="m 223.24684,70.855626 a 22.918975,40.431071 28.168777 0 0 -27.15751,18.831405 22.918975,40.431071 28.168777 0 0 -8.09357,14.917949 30.192436,57.715187 76.59446 0 1 23.45439,14.91072 30.192436,57.715187 76.59446 0 1 0.0227,12.97286 54.59112,29.204947 55.781923 0 1 0.0165,0.0124 54.59112,29.204947 55.781923 0 1 5.66425,4.91547 22.918975,40.431071 28.168777 0 0 9.94978,-10.92905 22.918975,40.431071 28.168777 0 0 7.55871,-50.786565 22.918975,40.431071 28.168777 0 0 -11.41531,-4.845182 z"
       id="ellipse2148" />
    <path
       id="path1147-3"
       style="fill:#5d37a2;fill-rule:nonzero;stroke:#ffffff;stroke-width:2.64583;stroke-linecap:round;stroke-linejoin:bevel;stroke-dasharray:none;stroke-opacity:1;paint-order:normal"
       d="m 211.48115,132.49476 a 30.192436,57.715187 76.59446 0 1 -8.63875,12.43128 22.918975,40.431071 28.168777 0 0 14.31127,-7.50962 54.59112,29.204947 55.781923 0 0 -5.66425,-4.91547 54.59112,29.204947 55.781923 0 0 -0.008,-0.006 z" />
  </g>
</svg>
